<?xml version="1.0" standalone="no"?>
<!DOCTYPE svg PUBLIC "-//W3C//DTD SVG 20010904//EN"
 "http://www.w3.org/TR/2001/REC-SVG-20010904/DTD/svg10.dtd">
<svg version="1.0" xmlns="http://www.w3.org/2000/svg"
 width="468.000000pt" height="562.000000pt" viewBox="0 0 468.000000 562.000000"
 preserveAspectRatio="xMidYMid meet">
<metadata>
Created by potrace 1.16, written by Peter Selinger 2001-2019
</metadata>
<g transform="translate(0.000000,562.000000) scale(0.100000,-0.100000)"
fill="#000000" stroke="none">
<path d="M1960 5286 c0 -5 8 -18 18 -29 17 -20 16 -20 -17 -14 -29 6 -32 5
-26 -10 4 -13 -1 -11 -19 6 -15 14 -26 19 -26 13 0 -7 3 -12 8 -12 14 -1 106
-90 99 -96 -4 -4 -17 2 -30 13 -12 12 -37 24 -54 28 -18 3 -37 14 -42 22 -12
22 -27 10 -26 -20 2 -31 27 -70 74 -115 35 -34 35 -34 4 -13 -25 17 -57 52
-100 110 -2 2 -5 2 -8 -1 -3 -2 6 -20 20 -38 14 -19 25 -41 25 -49 -1 -13 -4
-12 -15 3 -30 40 -24 7 7 -35 27 -38 45 -89 31 -89 -3 0 -16 9 -30 20 -29 22
-51 17 -31 -8 12 -13 10 -14 -9 -4 -12 7 -38 12 -58 12 -33 0 -36 -2 -30 -22
6 -21 5 -22 -8 -5 -17 20 -34 22 -40 5 -2 -7 -14 4 -27 25 -27 46 -33 48 -15
4 9 -21 10 -38 4 -48 -7 -11 -9 -11 -9 4 0 20 -16 23 -23 5 -7 -23 -35 10 -69
84 -44 97 -47 71 -3 -31 38 -90 40 -95 26 -87 -5 4 -11 1 -13 -6 -3 -7 -7 -5
-11 6 -4 10 -3 15 3 11 16 -10 11 21 -5 35 -13 11 -14 10 -9 -5 5 -12 4 -16
-3 -12 -6 4 -13 2 -15 -5 -3 -7 -7 -5 -11 6 -4 10 -3 15 3 11 6 -3 10 -2 10 4
0 15 -18 23 -25 11 -4 -6 -30 9 -62 35 -30 25 -59 42 -64 39 -6 -3 -17 0 -26
8 -15 12 -15 11 -4 -9 17 -33 0 -28 -32 9 -26 31 -28 31 -22 8 4 -14 16 -38
27 -55 l21 -30 -28 25 -29 25 17 -27 c10 -16 13 -28 7 -28 -6 0 -8 -5 -5 -10
4 -6 10 -8 14 -6 9 6 50 -36 76 -76 17 -27 17 -28 -3 -28 -12 0 -27 -7 -34
-16 -34 -42 -50 -54 -59 -49 -5 4 -8 3 -7 -2 2 -5 -10 -24 -25 -43 -25 -29
-31 -32 -48 -22 -12 8 -19 8 -19 2 0 -5 -4 -10 -10 -10 -16 0 -11 32 8 46 9 7
12 14 6 14 -5 0 -20 -9 -32 -20 -36 -34 -57 -24 -25 12 9 11 11 18 5 18 -7 0
-12 -4 -12 -8 0 -5 -6 -9 -14 -9 -8 0 -14 5 -13 11 1 5 -3 10 -10 11 -6 0 -15
4 -20 9 -5 5 -3 6 5 2 6 -4 12 -2 12 3 0 10 -34 15 -77 14 -7 -1 -13 4 -13 9
0 6 9 8 20 5 11 -3 20 -1 20 4 0 5 7 9 15 9 8 0 15 4 15 10 0 5 7 6 17 3 12
-5 14 -3 8 8 -7 12 -5 12 6 1 12 -11 12 -14 -1 -22 -8 -5 -11 -12 -7 -16 8 -9
38 16 32 26 -3 5 4 12 16 15 27 9 12 25 -27 31 -22 3 -33 -1 -47 -20 -16 -20
-23 -23 -43 -16 -18 7 -24 6 -24 -4 0 -11 -8 -12 -34 -6 -27 6 -33 5 -29 -6 3
-8 0 -14 -6 -14 -6 0 -11 5 -11 12 0 6 -3 8 -7 4 -4 -4 3 -16 16 -25 l24 -19
-22 -7 c-13 -4 -28 -2 -36 5 -9 7 -15 8 -15 2 0 -5 7 -15 16 -23 9 -8 13 -21
10 -35 -4 -15 0 -27 11 -36 10 -7 24 -24 31 -38 12 -23 11 -23 -13 4 -23 25
-28 27 -43 14 -15 -11 -33 -15 -52 -9 -3 1 -30 4 -61 6 -47 4 -59 1 -74 -15
-16 -18 -17 -20 -2 -20 18 0 23 -15 8 -24 -5 -4 -11 0 -14 6 -2 7 -7 10 -11 7
-8 -7 40 -101 86 -167 17 -24 28 -46 25 -49 -3 -3 -12 8 -21 24 -8 15 -26 41
-40 57 -14 16 -26 33 -26 38 0 5 -5 6 -10 3 -7 -4 -6 -14 2 -28 7 -12 11 -26
10 -31 -2 -5 3 -16 11 -25 25 -30 37 -69 23 -74 -7 -3 -31 32 -61 95 -28 55
-54 102 -59 106 -5 3 -6 -2 -3 -12 6 -15 3 -17 -17 -12 -18 4 -28 0 -40 -18
-14 -23 -14 -28 10 -82 28 -64 61 -114 74 -114 4 0 6 9 3 20 -7 27 23 27 37 0
15 -28 6 -37 -27 -33 -22 4 -38 19 -68 66 -22 34 -47 62 -55 62 -8 0 -19 5
-23 10 -5 6 -6 -9 -4 -33 3 -28 2 -40 -5 -36 -19 12 1 -46 45 -137 45 -90 50
-124 16 -93 -19 17 -25 10 -20 -20 1 -5 -4 -13 -11 -17 -12 -8 -14 -13 -17
-48 -1 -10 -12 -4 -34 17 -33 32 -67 36 -67 7 0 -17 27 -38 38 -31 5 3 17 -3
26 -13 16 -18 16 -22 1 -50 -8 -17 -20 -31 -26 -31 -6 0 -8 4 -4 9 3 5 1 12
-5 16 -5 3 -10 -3 -10 -14 0 -10 5 -21 11 -23 7 -2 1 -25 -15 -61 -14 -32 -22
-65 -19 -74 4 -10 24 22 60 96 46 97 73 134 73 101 0 -5 -4 -10 -9 -10 -4 0
-16 -21 -26 -47 -10 -27 -28 -66 -40 -88 -27 -48 -41 -90 -28 -82 6 4 30 47
54 97 30 64 45 86 51 76 5 -10 -3 -35 -26 -73 -47 -82 -59 -123 -46 -159 14
-35 4 -100 -16 -108 -10 -4 -13 -13 -8 -31 7 -28 -7 -33 -26 -10 -7 9 -15 14
-17 11 -6 -6 25 -64 53 -102 13 -17 21 -34 17 -37 -3 -4 0 -7 9 -7 10 0 15
-10 15 -32 0 -39 -13 -59 -33 -51 -10 4 -12 0 -8 -12 6 -15 3 -16 -17 -10 -20
7 -22 6 -12 -7 10 -11 10 -17 1 -26 -8 -8 -8 -12 -2 -12 17 0 36 -48 22 -56
-7 -4 -8 -3 -4 4 4 7 3 12 -3 12 -18 0 -21 -17 -6 -30 8 -7 12 -16 9 -21 -8
-14 -24 -11 -22 3 2 7 -4 13 -12 13 -18 0 -22 -48 -7 -82 7 -16 6 -27 -3 -38
-11 -13 -11 -18 0 -28 10 -10 12 -8 6 8 -6 16 -5 17 5 8 10 -10 9 -16 -4 -31
-20 -22 -24 -67 -4 -56 9 6 9 4 1 -7 -6 -8 -10 -31 -8 -51 2 -24 -2 -38 -12
-42 -7 -3 -13 0 -11 6 1 6 -3 12 -10 15 -7 3 -10 -3 -6 -15 5 -21 -22 -38 -32
-21 -4 5 -12 6 -18 2 -9 -5 -8 -2 0 8 10 13 10 16 -3 16 -10 0 -14 -7 -11 -19
3 -11 0 -18 -10 -18 -8 0 -11 -5 -7 -11 4 -8 9 -8 17 0 15 15 27 14 27 -4 0
-8 6 -15 14 -15 17 0 46 -27 46 -41 0 -6 -7 -3 -16 5 -8 9 -19 16 -23 16 -10
0 -1 -49 10 -56 5 -3 6 2 3 11 -5 11 -2 14 10 9 9 -3 16 -10 16 -15 0 -5 7 -9
16 -9 8 0 12 -5 9 -10 -5 -7 -11 -8 -19 -1 -7 6 -17 6 -26 1 -13 -8 -12 -12 5
-26 19 -15 18 -15 -7 0 -31 18 -54 20 -63 6 -4 -7 2 -9 19 -4 21 5 26 2 32
-21 4 -16 12 -24 20 -21 9 3 11 0 7 -12 -11 -29 -29 -41 -44 -31 -10 6 -10 9
-1 9 6 0 12 7 12 15 0 20 -16 19 -24 -1 -8 -21 -9 -20 20 -39 18 -11 24 -13
19 -4 -6 11 -5 11 4 3 16 -14 11 -46 -7 -50 -7 -1 -8 0 -2 3 5 2 10 9 10 14 0
13 -57 11 -66 -2 -4 -8 0 -9 15 -4 17 5 21 2 21 -17 0 -13 -4 -38 -9 -56 -5
-17 -6 -32 -1 -32 4 0 11 18 15 39 5 31 10 38 23 34 10 -4 12 -8 4 -11 -7 -2
-12 -8 -12 -13 0 -6 4 -8 9 -4 5 3 13 0 17 -6 4 -8 3 -9 -4 -5 -16 9 -15 4 3
-30 13 -25 15 -26 15 -8 0 12 8 25 17 28 14 6 14 8 -5 22 -18 12 -20 19 -11
35 6 12 13 18 16 15 3 -3 0 -12 -6 -20 -8 -10 -9 -16 -1 -21 5 -3 10 -1 10 6
0 10 3 10 11 2 6 -6 17 -9 24 -7 18 7 25 -32 9 -53 -7 -10 -13 -22 -13 -28 0
-5 6 -2 13 8 15 20 58 18 64 -4 3 -11 1 -11 -7 1 -8 12 -11 12 -17 -3 -3 -10
-11 -17 -18 -16 -6 1 -18 -1 -27 -5 -20 -9 -18 -88 4 -110 12 -13 15 -29 11
-70 -5 -46 -2 -59 17 -85 28 -38 35 -39 43 -5 5 17 12 24 21 20 8 -3 17 -1 21
5 6 11 103 7 122 -5 13 -8 112 32 112 45 0 5 8 9 18 9 10 0 27 7 38 16 18 15
18 15 0 10 -17 -6 -17 -4 -5 10 12 15 11 16 -9 10 -12 -4 -22 -4 -22 1 0 5 8
9 18 10 34 3 47 8 54 23 4 10 7 4 8 -15 1 -28 2 -29 15 -11 13 18 41 14 29 -5
-3 -5 -10 -7 -15 -4 -5 4 -9 -1 -9 -9 0 -17 26 -22 32 -7 5 15 91 17 116 2 27
-14 29 -14 34 14 3 20 -3 22 -34 10 -13 -5 -18 -2 -18 9 0 8 -10 25 -22 37
-13 12 -17 19 -10 15 10 -6 10 -2 0 18 -14 32 -48 35 -48 5 0 -12 -8 -23 -20
-26 -11 -3 -17 -9 -14 -14 3 -5 1 -9 -5 -9 -5 0 -12 4 -15 9 -7 11 -29 9 -47
-5 -29 -22 -39 -25 -39 -11 0 8 11 18 25 21 14 4 25 11 25 17 0 6 5 7 10 4 6
-3 10 1 10 9 0 9 6 16 13 16 6 1 1 7 -13 15 -30 17 -24 19 18 4 20 -7 29 -15
25 -22 -3 -7 5 -2 19 11 14 13 29 22 34 21 5 -1 16 1 24 4 8 4 76 11 150 15
133 9 137 10 190 45 30 20 84 43 120 52 63 16 120 43 120 56 0 17 -43 124 -84
211 -57 119 -80 208 -104 413 -20 167 -20 379 1 392 5 3 7 1 4 -4 -7 -11 33
-43 53 -43 5 0 10 14 10 31 0 29 2 31 26 25 15 -4 32 -12 39 -19 16 -17 8 -37
-13 -30 -15 4 -15 3 -2 -6 8 -6 27 -11 41 -11 21 0 28 6 32 28 3 15 1 32 -4
38 -5 6 -6 14 -3 17 4 3 -5 9 -20 13 -16 4 -23 11 -19 18 4 6 0 5 -9 -2 -12
-9 -18 -10 -23 -2 -5 8 -11 6 -19 -6 -10 -13 -21 -15 -52 -9 -21 4 -42 12 -46
18 -9 14 -10 123 -2 155 4 12 11 22 16 22 5 0 6 -4 3 -10 -3 -6 4 -10 17 -10
13 0 28 -4 34 -9 9 -9 37 -15 59 -12 6 0 11 10 11 20 0 11 -4 17 -8 15 -4 -3
-8 2 -8 10 0 15 -33 39 -42 31 -7 -8 -69 16 -63 24 2 4 11 43 20 87 9 43 20
82 24 87 4 4 16 -2 26 -13 10 -11 25 -20 33 -20 13 0 12 3 -3 13 -11 9 -15 19
-10 27 5 9 4 11 -3 6 -26 -16 -10 12 19 33 25 18 41 43 54 81 9 25 18 39 25
35 4 -2 6 6 5 20 -2 17 1 22 11 18 8 -3 14 1 14 9 0 20 39 55 80 70 37 15 66
14 142 0 28 -5 51 -5 56 0 6 6 13 -2 19 -19 12 -38 11 -65 -5 -70 -8 -3 -10 1
-5 14 4 12 0 10 -14 -7 -14 -17 -18 -27 -10 -32 17 -10 -11 -38 -31 -31 -15 6
-15 5 -3 -10 11 -14 11 -17 0 -17 -11 0 -11 -2 1 -10 13 -8 12 -10 -2 -10 -20
0 -24 -16 -6 -22 16 -6 39 -88 25 -88 -6 0 -2 -7 9 -15 10 -8 15 -15 9 -15 -5
-1 -1 -5 10 -10 18 -8 18 -9 2 -9 -18 -1 -18 -2 -1 -18 10 -10 21 -19 26 -19
4 -1 11 -2 15 -3 4 0 -11 -17 -32 -36 -22 -19 -41 -32 -44 -30 -2 3 -10 -3
-18 -13 -9 -10 -12 -11 -7 -2 6 12 4 12 -12 -1 -10 -9 -25 -14 -32 -12 -9 4
-11 -2 -7 -19 5 -19 2 -24 -14 -26 -45 -4 -50 -6 -57 -21 -10 -24 -13 -71 -4
-71 10 0 10 -49 -1 -56 -4 -2 -5 -12 -2 -21 4 -9 2 -14 -3 -11 -5 4 -9 -26
-10 -69 0 -41 -5 -78 -11 -81 -5 -4 -13 -25 -17 -47 -4 -21 -14 -51 -21 -65
-7 -14 -16 -45 -20 -69 -4 -24 -14 -59 -21 -78 -8 -19 -12 -39 -8 -44 7 -13
-14 -59 -36 -76 -13 -10 -9 -14 22 -27 21 -9 42 -16 47 -16 5 0 11 -6 14 -14
3 -8 16 -16 28 -18 16 -2 24 -11 25 -28 2 -14 5 -34 9 -46 6 -19 2 -22 -34
-28 -25 -4 -41 -12 -41 -20 0 -24 -52 -27 -76 -4 -25 23 -33 15 -32 -31 1 -32
2 -33 37 -28 20 3 68 -2 107 -11 l72 -16 -20 -37 c-17 -33 -23 -37 -51 -33
-18 2 -39 -1 -47 -6 -25 -16 8 -62 59 -81 23 -8 46 -21 50 -28 5 -7 12 -11 17
-9 5 1 11 -8 12 -21 3 -16 0 -21 -8 -16 -9 5 -10 1 -5 -14 5 -16 3 -20 -9 -15
-9 3 -16 1 -16 -6 0 -6 -4 -9 -9 -6 -12 8 -22 -20 -15 -39 8 -21 -24 -20 -50
2 l-21 17 20 -22 c12 -12 45 -35 74 -50 47 -24 58 -36 107 -121 40 -70 67
-105 106 -136 68 -54 88 -83 256 -390 51 -93 60 -118 60 -160 0 -36 8 -63 27
-97 27 -49 39 -61 28 -31 -5 15 -3 14 10 -2 13 -17 13 -20 1 -23 -21 -5 -17
-15 16 -47 17 -16 30 -34 30 -41 0 -6 6 -17 14 -23 16 -13 7 -23 143 159 43
58 99 139 124 180 129 212 171 275 180 272 6 -1 8 2 5 7 -3 5 -3 16 0 25 5 13
11 7 26 -21 32 -61 45 -66 80 -32 17 16 37 29 44 29 10 0 11 6 4 25 -6 15 -6
26 0 30 6 4 10 17 10 30 0 13 12 34 28 47 15 13 32 33 38 44 8 13 22 19 44 17
25 -1 30 2 25 15 -6 16 -5 15 11 0 9 -9 23 -34 31 -55 21 -62 2 -120 -71 -208
-23 -27 -54 -68 -69 -90 -14 -23 -44 -57 -64 -77 -62 -60 -356 -278 -449 -334
-48 -29 -85 -56 -118 -86 -32 -29 -48 -30 -25 -1 12 15 12 16 -4 10 -13 -5
-25 0 -38 15 -10 13 -18 27 -19 31 0 5 -9 20 -20 34 -11 14 -17 29 -14 34 3 5
1 9 -4 9 -6 0 -42 50 -81 111 -39 60 -75 108 -80 104 -5 -3 -13 0 -17 6 -4 8
-3 9 4 5 22 -14 12 9 -38 84 -27 41 -50 71 -50 66 0 -8 69 -165 141 -323 16
-34 29 -67 29 -74 0 -10 -33 -10 -118 1 -2 0 -2 6 0 13 5 30 -14 57 -41 57
-15 0 -31 4 -37 10 -6 6 -21 6 -42 1 -19 -6 -34 -6 -37 0 -4 5 -3 9 2 9 4 0
-5 8 -20 19 -23 15 -26 19 -12 25 9 3 13 11 10 17 -5 7 -13 5 -25 -6 -17 -15
-18 -14 -28 14 -6 17 -16 31 -22 31 -6 0 -10 6 -8 13 3 17 -12 57 -22 57 -5 0
-12 9 -15 20 -4 11 -10 18 -15 15 -10 -6 -40 79 -40 116 0 15 -4 39 -10 54 -5
14 -6 24 -1 21 5 -3 12 5 15 19 4 16 20 32 40 42 22 10 40 30 52 57 11 22 25
41 33 41 8 0 44 -46 80 -102 35 -57 66 -101 68 -99 2 2 -18 44 -45 92 -27 49
-52 96 -55 104 -4 8 -25 44 -46 80 -57 92 -91 157 -86 162 9 9 -16 78 -28 78
-19 0 -80 -68 -112 -124 -25 -44 -28 -58 -28 -150 0 -56 7 -139 16 -186 23
-124 36 -242 40 -347 3 -75 1 -90 -10 -82 -7 6 -29 12 -49 14 -20 1 -40 8 -44
15 -7 11 -16 9 -43 -10 -26 -18 -33 -29 -32 -52 1 -15 -4 -33 -12 -39 -19 -16
-16 -32 8 -52 11 -10 18 -21 15 -24 -3 -4 -14 0 -23 9 -116 97 -156 127 -164
122 -5 -3 -8 -1 -7 4 3 8 -60 65 -96 87 -15 9 -15 18 4 125 23 132 24 154 9
128 -5 -10 -17 -18 -25 -18 -11 0 -12 5 -6 18 5 9 7 23 5 30 -3 6 0 12 6 12
20 0 11 24 -21 58 -21 21 -33 43 -33 60 0 27 -4 29 -40 17 -11 -4 -16 -3 -10
2 7 5 3 15 -10 29 l-20 22 0 -33 c0 -18 3 -31 8 -28 4 2 7 -1 7 -6 0 -6 -7
-11 -15 -11 -8 0 -15 -5 -15 -11 0 -6 9 -8 20 -4 11 4 20 2 20 -4 0 -6 -4 -11
-10 -11 -5 0 -10 -5 -10 -11 0 -5 5 -7 10 -4 6 3 10 0 10 -9 0 -8 3 -23 6 -33
5 -17 5 -17 -6 0 -13 20 -29 21 -65 5 -15 -6 -21 -14 -15 -18 12 -8 3 -40 -12
-40 -5 0 -7 4 -3 9 3 5 1 12 -5 16 -9 6 -14 -7 -11 -27 2 -11 -21 -5 -37 9 -7
7 -20 13 -28 13 -8 0 -13 4 -9 9 3 5 1 12 -5 16 -5 3 -10 11 -10 16 0 6 4 7
10 4 5 -3 10 -2 10 3 0 12 -29 24 -40 17 -5 -3 -11 -1 -14 4 -3 5 -15 7 -26 4
-15 -4 -20 0 -20 15 0 12 -5 24 -12 28 -7 5 -9 2 -6 -8 5 -11 0 -14 -18 -10
-14 2 -24 0 -24 -7 0 -7 5 -9 10 -6 22 13 9 -6 -14 -20 -21 -14 -28 -14 -48
-3 -13 7 -27 19 -31 26 -5 7 -12 10 -18 7 -5 -3 0 -15 11 -27 11 -12 17 -25
14 -30 -8 -12 -48 -10 -62 4 -9 9 -12 9 -12 0 0 -7 5 -12 10 -12 6 0 10 -12
11 -27 0 -27 1 -27 9 -5 9 22 30 31 30 12 0 -5 -5 -10 -11 -10 -8 0 -8 -5 1
-15 7 -8 9 -22 6 -31 -4 -11 -2 -15 8 -11 8 3 17 -1 20 -9 3 -8 1 -14 -4 -14
-21 0 -25 -2 -33 -16 -5 -8 -12 -12 -17 -9 -5 3 -11 1 -15 -5 -6 -10 9 -15 30
-10 46 11 75 10 75 -1 0 -7 3 -9 6 -6 4 4 1 13 -6 22 -7 8 -10 25 -6 39 5 20
3 23 -13 19 -13 -3 -23 2 -30 15 -10 18 -8 19 12 14 12 -4 31 -12 42 -19 16
-10 17 -13 5 -28 -12 -14 -12 -18 1 -26 8 -5 17 -9 21 -9 13 0 39 -47 41 -72
0 -12 6 -26 11 -30 6 -4 5 -17 -3 -35 -10 -23 -10 -26 0 -15 19 17 34 15 19
-4 -8 -8 -9 -14 -3 -12 11 3 13 -1 13 -22 0 -16 -14 -12 -42 14 -14 14 -29 22
-34 18 -4 -4 -4 1 -1 11 4 11 3 16 -3 12 -15 -10 -12 -32 6 -39 9 -4 14 -13
10 -21 -3 -8 -1 -15 5 -15 6 0 8 -4 4 -9 -3 -6 3 -15 12 -21 15 -8 11 -10 -17
-7 -19 2 -34 9 -33 15 6 26 -28 -3 -47 -41 -14 -26 -16 -36 -7 -29 12 10 15 8
20 -13 3 -19 1 -25 -8 -21 -24 9 -24 -7 0 -26 13 -10 23 -24 21 -31 -1 -7 -1
-9 1 -4 3 4 9 7 14 7 6 0 8 -4 5 -8 -9 -15 9 -31 24 -22 10 7 11 10 3 10 -7 0
-13 5 -13 10 0 6 11 3 25 -7 27 -20 33 -36 10 -27 -19 8 -19 -3 -1 -21 12 -12
16 -11 30 8 13 18 14 19 9 3 -5 -16 -3 -18 11 -13 13 5 16 3 12 -11 -5 -16 -9
-77 -7 -96 1 -5 8 -3 16 4 8 7 13 15 11 19 -7 10 12 37 19 29 4 -3 0 -21 -8
-40 -8 -18 -18 -53 -22 -78 -3 -24 -11 -50 -17 -57 -8 -10 -7 -13 5 -13 9 0
17 13 21 33 3 17 8 43 11 57 6 33 26 70 38 70 6 0 6 -5 0 -12 -16 -21 -32 -98
-21 -98 6 0 8 -7 5 -15 -4 -8 -2 -17 4 -21 6 -3 7 -19 4 -35 -5 -23 0 -34 29
-64 20 -20 40 -33 46 -30 5 3 7 -10 4 -32 -4 -29 -3 -34 5 -23 6 8 11 27 11
42 0 15 4 30 10 33 6 4 7 -6 3 -26 -5 -24 -3 -30 6 -24 17 10 -1 -26 -36 -73
-34 -45 -39 -96 -13 -115 11 -8 17 -17 12 -22 -4 -5 -1 -5 5 -1 7 4 13 13 13
20 0 8 7 19 15 26 12 10 16 9 21 -5 5 -12 -6 -28 -37 -56 -43 -37 -45 -54 -3
-24 20 13 21 13 16 -10 -4 -21 -1 -25 22 -25 14 0 26 -4 26 -9 0 -5 10 -7 22
-3 14 3 19 2 14 -6 -14 -23 5 -12 32 19 19 21 38 31 62 33 18 1 36 8 38 14 5
17 22 15 22 -3 0 -8 4 -15 10 -15 6 0 6 9 0 25 -10 27 -2 33 18 13 9 -9 16 -8
30 5 10 9 24 17 30 17 8 0 12 17 12 45 0 43 1 45 20 33 17 -11 22 -10 30 2 8
12 10 10 10 -8 0 -14 4 -21 11 -16 15 9 30 -16 23 -38 -8 -25 0 -23 40 12 20
18 37 26 41 20 3 -5 -1 -10 -10 -10 -12 0 -13 -3 -4 -13 7 -7 25 -11 41 -9 17
3 28 0 26 -6 -2 -5 0 -11 5 -12 7 -1 108 17 140 26 15 5 17 1 11 -23 -4 -19
-3 -25 4 -18 5 6 12 19 14 29 2 13 20 25 55 37 51 17 51 17 57 -4 4 -14 0 -27
-12 -36 -15 -12 -15 -13 0 -8 11 4 18 0 21 -11 4 -16 5 -15 6 1 1 20 36 24 45
5 3 -7 4 -2 1 12 -3 14 -2 19 1 13 3 -7 12 -13 20 -13 8 0 13 -3 13 -7 -5 -33
5 -34 31 -3 22 27 30 31 30 17 0 -10 5 -15 10 -12 6 3 10 2 10 -4 0 -5 -4 -11
-10 -13 -6 -2 -6 -8 0 -18 8 -13 10 -13 10 2 0 11 5 15 14 12 18 -7 31 15 17
29 -6 6 -11 15 -11 21 0 5 7 1 15 -10 8 -10 15 -27 15 -38 0 -11 5 -16 13 -13
18 7 44 -15 57 -47 10 -27 30 -28 30 0 0 8 5 14 12 14 6 0 9 3 5 6 -3 4 0 22
8 41 18 43 18 44 1 37 -9 -4 -18 6 -26 30 -13 41 -6 59 20 51 17 -5 37 21 25
33 -3 3 -5 0 -5 -6 0 -7 -5 -12 -11 -12 -5 0 -8 4 -5 9 3 5 -1 12 -10 15 -8 3
-12 2 -9 -3 3 -5 2 -12 -3 -15 -4 -2 -14 5 -21 17 -8 12 -10 19 -6 15 4 -4 15
0 23 9 11 10 17 12 20 4 2 -6 9 -8 15 -4 19 12 56 12 63 1 4 -6 2 -8 -3 -5 -6
4 -13 0 -16 -8 -4 -9 -1 -12 9 -8 7 3 14 0 14 -6 0 -6 -8 -11 -17 -12 -10 0
-13 -3 -6 -5 7 -3 22 0 33 6 31 17 70 22 70 10 0 -5 5 -10 10 -10 15 0 12 16
-5 34 -35 34 3 39 61 8 153 -84 385 -179 498 -203 106 -23 107 -23 100 -6 -3
9 10 13 51 12 30 0 55 1 55 3 0 1 -12 7 -27 13 -20 7 -24 12 -14 18 9 6 4 14
-21 28 -18 12 -43 24 -55 28 -13 3 -23 11 -23 17 0 7 4 7 13 0 6 -6 29 -13 49
-17 22 -4 35 -11 31 -18 -4 -6 3 -8 18 -4 36 9 67 -2 72 -27 4 -21 5 -21 12 2
5 15 10 19 15 12 8 -14 36 25 43 61 2 13 5 -13 6 -58 1 -63 4 -83 15 -83 7 0
19 -7 26 -15 11 -14 15 -14 33 2 15 13 21 15 24 6 9 -25 23 -13 24 20 1 35 16
91 18 67 1 -12 5 -11 16 4 14 19 15 19 15 -7 0 -35 13 -35 27 0 9 23 10 11 6
-57 -3 -47 -2 -82 2 -78 4 3 15 37 25 75 10 37 19 58 19 46 1 -17 6 -21 25
-19 13 1 31 9 39 18 14 14 14 17 -3 36 -16 17 -17 21 -4 26 8 3 12 10 9 16 -3
6 1 7 9 4 9 -3 16 -2 16 4 0 6 -6 13 -12 15 -7 3 -4 6 7 7 l20 1 -20 9 c-11 5
-14 9 -7 9 7 1 10 6 6 12 -4 8 1 9 17 4 20 -7 22 -5 12 6 -31 39 -53 91 -47
115 8 30 36 48 52 32 8 -8 12 -8 12 -1 0 6 -7 16 -15 23 -10 9 -15 9 -15 1 0
-6 -4 -11 -9 -11 -6 0 -3 12 5 28 7 15 14 32 14 39 0 19 67 -23 130 -81 56
-52 41 -27 -18 32 -28 27 -32 35 -22 47 10 12 8 19 -11 35 -19 15 -20 19 -8
20 9 0 22 7 29 15 8 9 23 13 38 10 25 -4 42 8 42 30 -1 6 -5 2 -11 -7 -6 -10
-16 -15 -26 -11 -13 5 -11 9 10 20 26 13 57 9 57 -9 0 -6 8 -4 17 3 14 12 16
12 9 -1 -4 -8 0 -6 9 5 9 11 24 19 33 18 23 -4 38 7 46 34 6 18 3 22 -14 20
-14 -1 -18 -6 -15 -18 3 -10 1 -20 -5 -24 -5 -3 -10 3 -10 14 0 14 -5 19 -15
15 -10 -4 -15 0 -15 14 0 27 25 45 50 37 11 -4 20 -2 20 4 0 6 6 9 13 7 6 -1
9 -1 4 1 -4 3 -5 9 -1 14 3 5 1 9 -5 9 -5 0 -13 -5 -16 -10 -3 -5 -11 -10 -17
-10 -6 0 -5 7 4 18 10 11 13 24 8 37 -4 12 -2 29 7 41 8 12 12 27 11 34 -2 7
3 15 10 17 6 3 12 -2 12 -11 0 -9 5 -16 11 -16 6 0 9 6 6 14 -4 9 0 12 11 9
16 -4 29 18 59 95 4 8 -5 12 -27 12 -32 0 -32 1 -16 19 15 17 15 19 1 25 -9 3
-14 2 -11 -3 3 -5 0 -13 -7 -18 -21 -16 -42 -9 -45 15 -3 18 5 26 40 41 24 11
39 20 33 21 -20 4 -41 7 -70 10 -28 3 -3 9 102 23 29 5 53 25 47 41 -6 15 22
29 38 20 18 -11 98 6 98 22 0 8 -7 17 -15 20 -22 9 -7 26 16 19 14 -5 19 -2
19 11 0 10 -3 14 -7 11 -10 -11 -32 13 -27 28 3 8 12 11 20 8 8 -3 14 0 14 7
0 6 -4 8 -10 5 -6 -3 -10 -2 -10 4 0 5 10 13 23 17 20 7 19 8 -12 16 -34 9
-34 10 -11 21 33 17 37 37 7 37 -13 0 -45 11 -70 24 -25 14 -48 21 -52 18 -4
-4 -2 3 4 16 13 24 24 30 15 8 -3 -8 -1 -17 5 -20 10 -6 9 10 -4 102 -5 31 -2
50 9 67 9 14 16 31 16 40 0 11 12 15 50 16 83 2 93 8 65 39 -18 20 -17 20 8
20 31 0 34 8 10 25 -20 15 -11 47 12 39 8 -3 15 -1 15 6 0 6 -4 8 -10 5 -17
-11 -11 7 8 21 16 12 15 13 -5 14 -13 0 -23 5 -23 11 0 5 4 8 8 5 4 -2 13 4
20 15 7 11 8 19 2 19 -16 0 -17 0 -58 38 -45 42 -47 54 -4 23 47 -33 61 -28
52 18 -4 24 -3 44 3 50 7 7 6 16 -4 27 -13 16 -12 16 8 6 30 -16 30 -16 25 23
-2 19 -8 35 -14 35 -5 0 -7 -4 -3 -9 3 -5 1 -12 -4 -15 -13 -8 -34 21 -27 39
3 8 1 15 -4 15 -6 0 -10 -10 -10 -22 0 -17 -3 -19 -9 -10 -6 11 -9 9 -13 -6
-5 -16 -2 -19 11 -14 14 5 14 4 2 -11 -19 -24 -40 -22 -34 3 3 11 0 26 -6 34
-7 8 -14 52 -17 97 -3 46 -7 89 -9 96 -3 8 2 10 13 6 9 -4 4 5 -13 20 -16 15
-22 24 -13 21 13 -4 16 0 14 19 -2 13 -5 28 -9 33 -3 5 -2 28 3 51 5 32 4 46
-6 54 -8 6 -14 17 -14 25 0 7 -8 18 -17 24 -14 8 -14 10 -3 9 38 -4 44 0 27
19 -10 10 -14 22 -10 26 4 4 0 4 -8 1 -15 -6 -22 0 -85 78 -8 9 -14 20 -14 24
0 4 -9 17 -21 29 -45 48 -10 39 66 -17 85 -62 119 -77 70 -31 -35 33 -67 72
-60 72 3 0 -9 14 -27 31 -36 33 -22 29 28 -8 31 -23 53 -21 33 4 -9 10 -8 13
2 13 7 0 3 10 -12 26 -21 22 -21 24 -4 18 20 -7 20 -7 1 14 -28 32 -5 27 39
-8 37 -29 45 -34 45 -26 0 2 -38 36 -84 76 -46 40 -87 82 -90 93 -5 19 -8 20
-16 7 -9 -13 -10 -13 -11 0 -1 8 -1 19 0 23 1 5 -3 6 -8 3 -11 -7 -85 53 -77
62 3 2 -5 13 -17 24 -19 17 -20 18 -2 10 11 -6 37 -26 58 -47 20 -20 37 -30
37 -23 0 7 -17 30 -37 52 -44 46 -19 31 47 -28 24 -23 37 -32 27 -20 -19 23
-23 39 -7 29 6 -3 10 -1 10 5 0 7 -7 10 -15 7 -8 -4 -17 -1 -21 5 -4 7 -3 8 4
4 7 -4 12 -2 12 3 0 6 -5 11 -10 11 -12 0 -60 45 -60 56 0 3 15 -5 33 -18 35
-27 120 -78 129 -78 12 0 1 34 -12 38 -8 3 -10 0 -5 -8 5 -9 4 -11 -4 -6 -6 4
-9 11 -6 16 3 5 -3 13 -12 19 -10 5 -15 12 -12 15 3 3 33 -12 67 -34 67 -43
199 -103 215 -97 6 2 -14 13 -43 26 -57 25 -98 51 -137 89 -26 26 -29 34 -9
26 8 -3 17 0 22 7 4 8 3 10 -4 5 -7 -4 -12 -2 -12 3 0 16 14 13 36 -6 16 -15
114 -56 114 -48 0 1 -28 19 -62 39 -64 37 -157 106 -143 106 4 0 20 -9 37 -21
48 -34 42 -16 -7 21 -40 30 -59 55 -37 48 4 -2 21 11 38 28 17 17 37 34 45 37
8 4 -10 4 -38 1 -43 -4 -53 -3 -53 10 0 17 -36 40 -50 31 -5 -3 -17 8 -26 25
-10 16 -22 30 -26 30 -4 0 -8 5 -8 11 0 6 -12 25 -26 42 l-26 30 24 13 c19 11
20 13 5 14 -10 0 -34 16 -53 36 -20 19 -39 32 -42 29 -4 -4 11 -22 32 -41 22
-19 35 -34 29 -34 -5 0 -32 20 -59 45 -51 46 -70 56 -60 30 7 -19 1 -19 -31 2
-14 9 -37 17 -51 18 -14 0 -27 6 -30 14 -3 9 0 11 8 6 8 -5 11 -4 6 3 -4 6
-13 9 -22 5 -9 -3 -14 0 -12 8 2 7 -2 13 -9 14 -7 0 -19 9 -27 20 -9 11 -16
16 -16 12 0 -10 35 -62 62 -91 10 -11 18 -25 18 -30 0 -6 -10 3 -22 19 -13 17
-43 52 -69 78 -36 37 -52 47 -67 43 -14 -5 -25 0 -35 14 -8 11 -29 37 -48 58
-52 57 -67 78 -50 67 11 -6 13 -4 7 10 -5 15 -4 16 9 5 17 -15 21 -35 3 -24
-7 4 -8 3 -4 -5 4 -6 11 -9 16 -6 4 3 24 -13 44 -35 20 -22 36 -34 36 -26 0 8
-6 19 -13 23 -20 13 -70 84 -63 90 9 10 46 -28 39 -40 -4 -6 -1 -7 6 -3 8 5
14 0 18 -13 5 -21 23 -30 23 -11 0 31 66 -9 157 -94 29 -27 39 -42 31 -47 -7
-5 -19 -2 -28 4 -13 10 -13 10 -1 -5 9 -13 18 -15 31 -8 11 6 21 5 28 -2 7 -7
14 -9 17 -6 3 3 -9 19 -27 37 -17 17 -28 31 -24 31 12 0 97 -64 125 -94 14
-14 28 -26 33 -26 17 0 7 28 -17 46 -14 10 -34 36 -45 57 -18 33 -18 37 -3 37
14 0 14 3 -3 23 -10 12 -3 7 17 -10 19 -18 42 -33 51 -33 9 0 20 -4 23 -10 3
-5 13 -10 22 -10 14 0 15 2 1 18 -9 9 -13 22 -11 29 2 6 -3 25 -11 42 -18 34
-20 45 -7 36 5 -3 12 -1 15 3 8 14 -160 171 -225 211 -26 16 -27 20 -15 36 8
11 11 25 9 32 -3 8 3 21 13 31 11 10 35 35 54 57 23 26 12 18 -31 -20 -111
-102 -108 -100 -132 -76 -21 20 -21 21 -1 43 18 22 17 21 -9 -1 -15 -14 -29
-23 -31 -20 -2 2 -20 26 -40 52 -20 27 -36 42 -36 34 0 -9 12 -29 26 -46 14
-17 22 -31 17 -31 -10 0 -126 173 -137 204 -3 10 -9 17 -11 14 -6 -6 37 -111
50 -120 6 -5 6 -8 -2 -8 -6 0 -21 12 -32 28 -28 36 -16 -1 15 -47 13 -19 22
-37 20 -39 -6 -6 -56 48 -56 61 0 7 -9 18 -20 25 -11 7 -20 17 -20 23 0 16
-62 140 -67 135 -8 -8 58 -161 102 -238 25 -43 45 -81 45 -85 0 -11 -42 53
-84 130 -21 37 -42 64 -47 61 -5 -3 -25 27 -44 68 -19 40 -32 62 -29 48 4 -14
20 -54 37 -89 24 -51 32 -61 37 -46 6 18 7 17 12 -3 4 -12 2 -20 -3 -16 -5 3
-9 -2 -9 -10 0 -18 17 -30 22 -16 2 6 11 -4 21 -22 l19 -33 -21 25 c-11 14
-21 20 -21 15 0 -15 85 -152 127 -202 35 -43 33 -60 -3 -23 -31 32 -44 49 -44
60 0 5 -4 10 -10 10 -5 0 -10 6 -10 14 0 8 -7 16 -15 20 -8 3 -14 0 -12 -7 1
-7 -6 -11 -15 -9 -24 4 -23 -5 3 -19 15 -8 19 -8 15 0 -4 6 -2 11 4 11 6 0 9
-8 6 -17 -3 -12 8 -32 34 -57 22 -22 37 -42 35 -44 -2 -3 -23 16 -46 42 -23
25 -46 46 -51 46 -5 0 -3 -7 4 -15 29 -33 38 -45 38 -54 0 -5 6 -11 14 -14 8
-3 20 -16 26 -28 10 -17 10 -20 -2 -13 -7 5 -16 9 -20 9 -3 0 -26 23 -49 50
-24 28 -50 56 -56 63 -7 7 -52 58 -100 113 -47 54 -88 97 -91 94 -3 -2 16 -29
42 -59 25 -30 46 -58 46 -63 0 -4 -6 -1 -13 7 -7 8 -23 24 -36 35 -21 17 -24
18 -18 3 9 -25 -1 -22 -24 5 -11 14 -18 17 -19 8 0 -11 -3 -11 -15 -1 -30 25
-28 -1 4 -48 l33 -47 -30 32 c-17 17 -33 29 -36 26 -3 -4 -6 1 -6 11 0 9 -4
15 -9 11 -5 -3 -25 10 -44 30 -55 57 -52 40 8 -41 31 -41 59 -82 62 -90 8 -20
-10 -17 -35 6 -12 11 -24 20 -26 20 -15 0 -110 89 -139 130 -12 17 -16 19 -13
7 15 -50 -23 -39 -79 21 -19 20 -35 32 -35 26 0 -6 9 -19 20 -29 20 -18 28
-41 10 -30 -5 3 -37 47 -71 98 -58 87 -73 88 -23 1 28 -48 30 -62 7 -43 -15
12 -16 12 -10 -3 9 -26 -4 -22 -35 10 -25 26 -79 122 -105 187 -9 22 -12 25
-12 10 -1 -11 19 -65 44 -120 45 -100 57 -134 29 -82 -21 39 -30 27 -9 -12 8
-17 13 -31 11 -31 -3 0 -13 15 -22 33 -10 19 -19 27 -22 19 -3 -10 -8 -8 -18
5 -16 21 -18 37 -4 28 6 -3 10 -3 10 0 0 10 -30 65 -36 65 -2 0 0 -9 6 -19 5
-11 10 -22 10 -24 0 -7 -22 -3 -36 6 -17 10 -26 -4 -12 -20 9 -11 6 -12 -16
-3 -15 5 -38 23 -51 38 -13 16 -30 29 -37 29 -7 0 -25 4 -40 8 -30 8 -36 -2
-15 -25 6 -7 -6 0 -28 16 -39 28 -39 28 -23 4 37 -53 38 -57 17 -55 -19 1 -79
60 -79 78 0 4 -7 7 -16 7 -14 0 -15 -2 -3 -17 13 -15 12 -15 -8 -4 -13 6 -23
16 -23 21 0 6 -4 10 -9 10 -5 0 -8 -8 -6 -17 1 -10 7 -17 13 -16 12 3 53 -40
55 -59 2 -7 13 -28 25 -45 31 -44 28 -51 -5 -11 -15 18 -54 62 -88 98 -33 36
-80 88 -103 115 -23 28 -42 46 -42 41z m-1019 -728 c1 -7 1 -22 0 -33 -2 -17
0 -17 8 -5 9 13 15 10 37 -15 l26 -30 -23 39 -22 38 21 -11 c12 -7 22 -19 22
-27 0 -8 4 -13 9 -10 5 4 8 0 7 -8 -3 -20 -36 -56 -51 -56 -7 0 -20 -9 -30
-20 -10 -11 -21 -18 -24 -14 -3 3 12 21 34 39 56 48 31 43 -35 -6 -30 -22 -56
-36 -58 -30 -2 6 -10 11 -18 11 -9 0 -12 -5 -9 -12 4 -7 -3 -2 -14 12 -27 31
-56 84 -43 76 6 -4 13 -2 17 3 8 13 66 42 74 37 4 -3 18 4 31 15 29 22 40 24
41 7z m1069 -743 c8 -10 9 -19 3 -27 -6 -7 -9 -20 -8 -29 2 -12 -7 -18 -37
-22 -53 -7 -69 -24 -18 -19 31 3 40 1 40 -11 0 -8 6 -18 13 -20 6 -3 -11 -6
-38 -6 -30 -1 -60 -8 -75 -18 -21 -15 -23 -15 -17 0 3 8 1 17 -5 19 -30 10
-11 108 21 108 9 1 32 9 51 20 43 23 54 24 70 5z m-134 -195 c-17 -57 -18 -64
-11 -58 5 4 15 2 24 -5 14 -10 14 -10 3 5 -11 14 -7 17 38 23 31 4 50 12 50
20 0 9 8 6 24 -8 l25 -22 -25 -13 c-13 -7 -24 -15 -24 -18 0 -3 6 -2 13 1 6 4
3 -1 -7 -9 -11 -9 -16 -16 -10 -16 5 0 21 -11 36 -25 20 -18 27 -34 26 -58 -1
-20 -6 -34 -14 -34 -6 0 -10 6 -7 14 3 7 -1 13 -8 13 -7 0 -9 -3 -6 -7 4 -3 2
-12 -5 -20 -14 -18 -2 -29 16 -14 11 9 17 8 29 -3 8 -8 18 -12 22 -8 13 13 73
7 83 -9 8 -12 4 -20 -14 -34 -13 -9 -22 -21 -19 -25 2 -4 -12 -16 -33 -26 -20
-10 -42 -26 -49 -34 -8 -10 -12 -11 -13 -3 0 6 -9 10 -20 8 -11 -2 -20 0 -20
6 0 5 5 9 12 9 6 0 9 2 6 5 -10 10 -38 -7 -31 -19 3 -6 2 -7 -3 -3 -5 5 -8 12
-7 15 0 4 -3 15 -8 25 -7 12 -6 17 3 17 7 0 2 9 -12 20 l-25 19 20 19 c12 10
27 22 35 25 10 3 8 6 -7 6 -34 1 -52 11 -47 26 3 7 -5 20 -18 29 -12 9 -19 16
-14 16 5 0 3 8 -5 18 -33 41 -36 56 -22 105 7 26 16 47 19 47 3 0 3 -9 0 -20z
m878 -2602 c2 -2 10 -14 19 -28 9 -13 17 -19 17 -12 0 6 7 12 15 12 9 0 12 6
8 16 -4 12 -1 15 13 12 11 -2 20 -13 22 -27 2 -13 12 -33 23 -44 27 -29 24
-52 -7 -55 -14 -1 -34 3 -44 8 -13 7 -21 7 -25 -1 -5 -7 -12 -6 -23 4 -10 8
-27 18 -39 21 -13 4 -23 13 -23 21 0 8 -9 12 -25 10 -28 -3 -31 10 -14 48 9
21 17 24 46 22 19 -2 36 -5 37 -7z"/>
<path d="M837 2246 c-4 -11 -13 -16 -22 -12 -19 7 -47 -3 -39 -15 3 -5 -3 -6
-12 -2 -13 5 -15 3 -9 -7 5 -8 4 -11 -3 -6 -6 4 -22 4 -36 0 -22 -5 -24 -9
-15 -31 12 -31 12 -29 -7 -47 -21 -21 -40 -21 -23 1 13 15 12 15 -8 5 -12 -7
-33 -12 -47 -12 -14 0 -28 -5 -31 -10 -4 -6 -11 -7 -17 -4 -6 4 -8 3 -5 -3 3
-5 21 -7 39 -5 31 5 32 4 18 -13 -14 -18 -14 -18 12 -1 32 21 67 16 106 -15
19 -15 28 -16 39 -8 7 7 11 19 8 28 -2 9 0 23 5 31 7 11 11 9 19 -13 6 -16 11
-33 11 -38 0 -12 17 -12 25 1 4 6 15 6 31 -1 22 -8 25 -7 20 6 -3 9 -2 13 4
10 15 -9 12 0 -11 41 -16 29 -17 35 -5 31 9 -4 15 -1 13 5 -4 21 22 19 33 -3
9 -17 14 -19 20 -8 21 32 -56 113 -84 90 -11 -10 -15 -8 -18 6 -3 17 -4 17
-11 -1z"/>
</g>
</svg>
